<?xml version="1.0" encoding="UTF-8"?>
<svg width="27px" height="28px" viewBox="0 0 27 28" version="1.1" xmlns="http://www.w3.org/2000/svg" xmlns:xlink="http://www.w3.org/1999/xlink">
    <!-- Generator: Sketch 52.1 (67048) - http://www.bohemiancoding.com/sketch -->
    <title>logo-teleton</title>
    <desc>Created with Sketch.</desc>
    <g id="Page-1" stroke="none" stroke-width="1" fill="none" fill-rule="evenodd">
        <g id="iPhone-8" transform="translate(-20.000000, -11.000000)" fill="#FFFFFF" fill-rule="nonzero">
            <g id="logo-teleton" transform="translate(20.000000, 11.000000)">
                <path d="M24.4659273,5.6185 C24.4688338,5.5862024 24.4625269,5.55373671 24.4477636,5.525 C24.4337405,5.36172282 24.4093071,5.19954729 24.3746182,5.0395 C24.3746182,5.002 24.3564545,4.9835 24.3564545,4.946 C24.3221609,4.78193458 24.2792261,4.61986706 24.2278364,4.4605 C24.2278364,4.442 24.2096727,4.423 24.2096727,4.4045 C23.8710757,3.47129308 23.2795491,2.65504002 22.5037636,2.0505 C16.8720545,3.8065 10.0690364,8.2505 12.8200909,19.423 C12.8323655,19.4354981 12.8446383,19.4479981 12.8569091,19.4605 C15.5712797,18.1856541 18.0716569,16.48348 20.2662,14.4165 C19.7360364,14.1552771 19.1649386,13.9909462 18.5789455,13.931 C18.1022727,13.931 17.3133818,13.987 16.9098545,13.9685 C16.4811836,13.9807852 16.0521971,13.9620715 15.6261273,13.9125 C15.4062,13.8565 15.2226,13.7255 15.2407636,13.483 C15.2574374,13.3005583 15.4094412,13.1620937 15.5893091,13.1655 C15.7910727,13.147 17.2947273,13.072 18.2304,12.904 C18.3590182,12.8855 18.3953455,12.8665 18.3953455,12.792 C18.3953455,12.736 18.3585273,12.6985 18.1754182,12.661 C17.2034182,12.474 15.9560182,12.2315 14.3424,11.7645 C14.1366793,11.7058514 13.9942994,11.5150831 13.9938545,11.2975 C13.9881921,11.2328561 14.0009769,11.167922 14.0306727,11.1105 C14.1038182,10.8865 14.3605636,10.737 14.8009091,10.849 C15.8204546,11.1071112 16.856039,11.2943757 17.9005091,11.4095 C18.1390909,11.447 18.2122364,11.4095 18.2304,11.316 C18.2304,11.2415 18.1754182,11.185 18.0104727,11.1105 C16.7551418,10.5273183 15.5362055,9.86607059 14.3605636,9.1305 C14.2272067,9.01540855 14.1584534,8.84052953 14.1769636,8.6635 C14.1780574,8.59720281 14.1970822,8.53249714 14.2319455,8.4765 C14.3411192,8.2474953 14.6091929,8.14828926 14.8372364,8.2525 C16.2859091,9.0185 17.0011636,9.3525 18.4503273,10.027 C18.7448727,10.158 18.8921455,10.195 18.927,10.1205 L18.927,10.083 C18.9088364,10.027 18.8538545,9.971 18.7070727,9.859 C18.5234727,9.709 18.1935818,9.448 17.9918182,9.2985 C17.3207942,8.80910261 16.7164536,8.23123213 16.1946,7.58 C16.1130752,7.47404568 16.0738051,7.34066165 16.0846364,7.2065 C16.090292,7.11437653 16.129506,7.02772069 16.1946,6.9635 C16.2766326,6.87306107 16.3909932,6.8201173 16.5118326,6.81663576 C16.6326719,6.81315423 16.7497881,6.85942885 16.8367091,6.945 C17.9547446,7.84972892 19.1378874,8.66769405 20.3761636,9.392 C21.1464,9.803 21.5131091,9.616 21.5680909,9.28 C21.5846962,9.15873198 21.5655596,9.03517298 21.5131091,8.925 C21.3563613,8.53465048 21.2216327,8.13550039 21.1095818,7.7295 C21.0147862,7.42050265 20.9593508,7.10038347 20.9446364,6.777 C20.9264727,6.3845 21.0364364,6.198 21.1464,6.123 C21.4581273,5.899 21.8066727,6.0485 22.0084364,6.6645 C22.3669576,7.80799617 22.8790856,8.89547276 23.5302545,9.896 C24.0580946,8.73913871 24.3632229,7.4899131 24.4291091,6.216 C24.4775523,6.02001553 24.4900345,5.81660284 24.4659273,5.616" id="Path_44"></path>
                <polygon id="Path_54" points="1.83403636 21.6085 0 21.6085 0.201763636 20.581 5.06176364 20.581 4.86 21.6085 2.98963636 21.6085 1.92583636 27.362 0.770236364 27.362"></polygon>
                <path d="M6.65721818,27.0815 C6.12396011,27.3383553 5.54168046,27.4723662 4.9518,27.474 C3.61309091,27.474 2.97098182,26.6335 2.97098182,25.438 C2.97098182,23.9625 4.03478182,22.338 5.70387273,22.338 C6.65770909,22.338 7.263,22.8985 7.263,23.7205 C7.263,24.9705 5.96061818,25.383 4.10841818,25.3455 C4.09012066,25.5833887 4.13452282,25.8219389 4.23703636,26.0365 C4.4464116,26.3823536 4.82990826,26.5777496 5.2272,26.541 C5.68549058,26.5399519 6.1373744,26.431305 6.54774545,26.2235 L6.65721818,27.0815 Z M5.5566,23.215 C4.88537627,23.2781542 4.33785391,23.7893952 4.21789091,24.465 C5.40981818,24.4835 6.16189091,24.315 6.16189091,23.718 C6.18005455,23.418 5.92330909,23.2135 5.5566,23.2135 L5.5566,23.215 Z" id="Path_55"></path>
                <polygon id="Path_56" points="7.20752727 27.362 8.45443636 20.581 9.61003636 20.581 8.36312727 27.362"></polygon>
                <path d="M12.9663818,27.0815 C12.4331237,27.3383553 11.8508441,27.4723662 11.2609636,27.474 C9.92225455,27.474 9.28014545,26.6335 9.28014545,25.438 C9.28014545,23.9625 10.3439455,22.338 12.0130364,22.338 C12.9668727,22.338 13.5721636,22.8985 13.5721636,23.7205 C13.5721636,24.9705 12.2697818,25.383 10.4175818,25.3455 C10.3992843,25.5833887 10.4436865,25.8219389 10.5462,26.0365 C10.7555752,26.3823536 11.1390719,26.5777496 11.5363636,26.541 C11.9946542,26.5399519 12.446538,26.431305 12.8569091,26.2235 L12.9663818,27.0815 Z M11.8657636,23.215 C11.1945399,23.2781542 10.6470175,23.7893952 10.5270545,24.465 C11.7189818,24.4835 12.4710545,24.315 12.4710545,23.718 C12.4710545,23.418 12.2324727,23.2135 11.8657636,23.2135 L11.8657636,23.215 Z" id="Path_57"></path>
                <path d="M16.0478182,21.1975 L15.8278909,22.4475 L16.9078909,22.4475 L16.7242909,23.363 L15.6442909,23.363 L15.2589273,25.343 C15.2026187,25.5690266 15.1718195,25.8008598 15.1671273,26.034 C15.1671273,26.314 15.2770909,26.484 15.5888182,26.484 C15.7240498,26.4816274 15.8589252,26.4690933 15.9923455,26.4465 L15.8823818,27.362 C15.6388238,27.436929 15.3844118,27.4685583 15.1303091,27.4555 C14.3419091,27.4555 13.9933636,27.0055 13.9933636,26.447 C14.001167,26.1399065 14.0318552,25.83386 14.0851636,25.5315 L14.5068545,23.346 L13.8652364,23.346 L14.0301818,22.4305 L14.6722909,22.4305 L14.8558909,21.515 L16.0478182,21.1975 Z" id="Path_58"></path>
                <path d="M16.4695091,25.4565 C16.4695091,23.794 17.6064545,22.3565 19.2573818,22.3565 C19.7892544,22.3281394 20.3077513,22.5321949 20.6827131,22.9174421 C21.0576748,23.3026892 21.2534956,23.8325456 21.2210182,24.374 C21.2210182,26.055 20.0840727,27.474 18.4331455,27.474 C17.901534,27.5013909 17.3836042,27.2970246 17.0088605,26.9120015 C16.6341168,26.5269784 16.437986,25.997697 16.4695091,25.4565 Z M20.0276182,24.373 C20.0276182,23.8685 19.8076909,23.252 19.1106,23.252 C18.1935818,23.252 17.6619273,24.502 17.6619273,25.419 C17.6619273,26.0915 18.0104727,26.5585 18.5971091,26.5585 C19.4591455,26.5585 20.0276182,25.363 20.0276182,24.373 Z M20.9446364,20.581 L19.6422545,22.0755 L18.7802182,22.0755 L19.7340545,20.581 L20.9446364,20.581 Z" id="Path_59"></path>
                <path d="M21.0546,27.3615 L21.6780545,23.9805 C21.7880182,23.4015 21.8616545,22.8805 21.9166364,22.4675 L22.9436182,22.4675 L22.8336545,23.3455 L22.8518182,23.3455 C23.2254038,22.7400426 23.8738985,22.3676628 24.5758909,22.3555 C24.9236171,22.3363041 25.2617477,22.4754273 25.4988147,22.7352352 C25.7358817,22.9950431 25.8473857,23.3486861 25.8031636,23.7005 C25.7987329,23.9706015 25.767982,24.2395876 25.7113636,24.5035 L25.1797091,27.3615 L24.0241091,27.3615 L24.5376,24.597 C24.5740473,24.4062324 24.5924588,24.2123459 24.5925818,24.018 C24.5925818,23.607 24.4453091,23.308 23.9872909,23.308 C23.4556364,23.308 22.7953636,23.962 22.5749455,25.1015 L22.1895818,27.362 L21.0546,27.3615 Z" id="Path_60"></path>
                <path d="M21.6417273,1.5835 C20.6223383,0.884035473 19.4226982,0.50707632 18.1935818,0.5 C15.861318,0.434070687 13.7336087,1.84879026 12.8544545,4.05 C11.9610617,1.85655933 9.83168955,0.451857856 7.50109091,0.5185 C4.62141818,0.537 2.23756364,2.5185 1.92583636,5.0765 L1.92583636,5.15 C1.91067891,5.23626204 1.90458999,5.32392365 1.90767273,5.4115 L1.90767273,5.673 C1.92100497,6.95404761 2.16976541,8.22122234 2.64109091,9.409 C3.3360332,8.43900732 3.89759055,7.37685032 4.31018182,6.252 C4.45745455,5.841 4.67689091,5.6355 4.89927273,5.6355 C5.00689758,5.6387128 5.11045723,5.67809103 5.19381818,5.7475 C5.32243636,5.841 5.4324,6.1025 5.34109091,6.6815 C5.32292727,6.7375 5.32292727,6.7935 5.30427273,6.8495 C5.28939962,6.88478344 5.28316628,6.92321925 5.28610909,6.9615 C5.24945455,7.0735 5.2128,7.20433333 5.17614545,7.354 C5.103,7.541 5.04752727,7.69 4.99254545,7.8395 C4.97438182,7.877 4.95572727,7.933 4.93756364,7.9705 C4.9194,8.008 4.9194,8.0265 4.90074545,8.064 C4.87319963,8.1250007 4.84878488,8.1874182 4.8276,8.251 C4.81048964,8.27995698 4.79805848,8.31152598 4.79078182,8.3445 C4.77261818,8.4005 4.7358,8.4565 4.71763636,8.5125 C4.51587273,8.8675 4.62583636,9.241 5.08434545,9.241 C5.33506366,9.22916048 5.57976678,9.15885475 5.7996,9.0355 C7.07598449,8.37987839 8.29680249,7.61760071 9.44950909,6.7565 C9.54433994,6.68313999 9.66031961,6.64376418 9.7794,6.6445 C9.89372745,6.65084623 10.0003643,6.70515204 10.0739455,6.7945 C10.1631026,6.88064908 10.198396,7.00982734 10.1657455,7.1305 L10.1657455,7.1865 C10.1397138,7.26036533 10.1026207,7.3296849 10.0557818,7.392 C9.50004544,8.01701156 8.86474211,8.56352187 8.16676364,9.017 C7.94683636,9.167 7.61645455,9.4095 7.41469091,9.54 C7.26741818,9.652 7.19476364,9.708 7.19476364,9.764 L7.19476364,9.8015 C7.21292727,9.839 7.23158182,9.839 7.28656364,9.839 C7.42005642,9.82281674 7.55015178,9.78500653 7.67192727,9.727 C9.15741818,9.127 9.87267273,8.8305 11.3581636,8.139 C11.4274058,8.1085321 11.5028814,8.0956627 11.5780909,8.1015 C11.7402206,8.13376631 11.8807323,8.23586022 11.9634545,8.3815 C12.0296017,8.49424476 12.0430935,8.63111209 12.0002727,8.755 C12.0002727,8.7735 11.9821091,8.7925 11.9821091,8.8295 C11.9483519,8.90289696 11.8978579,8.96701188 11.8348364,9.0165 C10.623935,9.68966663 9.37463772,10.2885664 8.09361818,10.81 C7.94634545,10.866 7.87369091,10.922 7.85503636,10.978 L7.85503636,11.0155 C7.8732,11.09 7.91001818,11.1275 8.03863636,11.1275 L8.18590909,11.1275 C9.23446947,11.0662922 10.2768231,10.9226986 11.3036727,10.698 C11.3863007,10.7263103 11.4733089,10.7390186 11.5604182,10.7355 C11.7882408,10.7041886 12.0076475,10.8352165 12.0920727,11.053 C12.1256874,11.184157 12.1126447,11.3231987 12.0552545,11.4455 C12.0552545,11.464 12.0370909,11.483 12.0370909,11.5015 C11.9688496,11.6029852 11.8620551,11.6707865 11.7425455,11.6885 C10.4644703,11.9964867 9.17100773,12.2339987 7.8678,12.4 C7.72052727,12.4185 7.66603636,12.4375 7.64787273,12.4935 L7.64787273,12.512 C7.64787273,12.568 7.68469091,12.5865 7.81281818,12.624 C8.685423,12.8042151 9.56712709,12.9352476 10.4539091,13.0165 C10.6331078,13.0236657 10.7767646,13.1699828 10.7838,13.3525 C10.7852749,13.4249622 10.7661836,13.496318 10.7288182,13.558 C10.7288182,13.5765 10.7106545,13.5955 10.7106545,13.614 C10.6197013,13.7024004 10.5047701,13.7609302 10.3807636,13.782 C9.95364487,13.8194609 9.52415513,13.8194609 9.09703636,13.782 C8.69350909,13.782 7.92327273,13.6885 7.4466,13.67 C6.85397575,13.7118633 6.27183498,13.8506393 5.72252727,14.081 C5.72252727,14.0912173 5.73065941,14.0995 5.74069091,14.0995 C7.82926321,16.2497497 10.2365835,18.0523992 12.8745818,19.4415 C12.2578569,17.5188449 11.9603736,15.5048675 11.9943818,13.4825 L11.9943818,13.464 C11.9912906,13.357829 11.9973686,13.2515868 12.0125455,13.1465 L12.0125455,13.053 C12.0094557,13.0022866 12.0156141,12.951429 12.0307091,12.903 C12.0307091,12.8285 12.0488727,12.753 12.0488727,12.679 L12.0488727,12.5855 C12.0488727,12.511 12.0670364,12.4545 12.0670364,12.38 L12.0670364,12.324 C12.0852,12.2305 12.0852,12.137 12.1038545,12.044 L12.1038545,12.0255 C12.2458583,11.004165 12.5171327,10.0058621 12.9109091,9.0555 C14.5986545,5.058 18.3035455,2.8165 21.6417273,1.5835" id="Path_61"></path>
                <path d="M4.01661818,1.6395 C7.24434545,1.6395 11.2241455,4.3295 12.9118909,9.037 C14.5991455,5.058 18.3020727,2.8165 21.6402545,1.5835 C20.6212825,0.884317882 19.4221958,0.507371595 18.1935818,0.5 C15.8620274,0.434915674 13.7353189,1.84949009 12.8564182,4.05 C11.9628965,1.85621048 9.83302561,0.451437621 7.50207273,0.5185 C6.86564334,0.50040219 6.23140064,0.60210588 5.63121818,0.8185 C5.04699067,0.985984337 4.49915423,1.26455099 4.01661818,1.6395" id="Path_62"></path>
                <path d="M26.5385455,26.8385 C26.5419482,26.9782419 26.4889418,27.1132921 26.3918961,27.2121349 C26.2948505,27.3109777 26.1622557,27.3649657 26.0250545,27.3615 C25.8362456,27.3699109 25.6581352,27.2721081 25.5612659,27.1068274 C25.4643967,26.9415468 25.4643967,26.7354532 25.5612659,26.5701726 C25.6581352,26.4048919 25.8362456,26.3070891 26.0250545,26.3155 C26.1622557,26.3120343 26.2948505,26.3660223 26.3918961,26.4648651 C26.4889418,26.5637079 26.5419482,26.6987581 26.5385455,26.8385 Z M25.5665455,26.8385 C25.5656167,26.9611196 25.6141861,27.0787436 25.7008807,27.1638293 C25.7875753,27.248915 25.9047815,27.2939901 26.0250545,27.2885 C26.1428378,27.2905511 26.2563899,27.2437995 26.3396874,27.1589594 C26.422985,27.0741193 26.4688866,26.9584645 26.4668727,26.8385 C26.4678015,26.7158804 26.4192321,26.5982564 26.3325375,26.5131707 C26.2458429,26.428085 26.1286367,26.3830099 26.0083636,26.3885 C25.7653529,26.3909387 25.5689398,26.590989 25.5665455,26.8385 Z M25.9332545,27.1185 L25.8414545,27.1185 L25.8414545,26.577 C25.9012477,26.5606386 25.9632729,26.5543888 26.0250545,26.5585 C26.0823841,26.5552129 26.1394846,26.5681946 26.19,26.596 C26.2255154,26.6216612 26.2461354,26.6636648 26.2449818,26.708 C26.2421881,26.7721955 26.1968462,26.8262113 26.1350182,26.839 C26.1836411,26.8661117 26.2174474,26.9143537 26.2268182,26.97 C26.2449818,27.0445 26.2636364,27.082 26.2636364,27.101 L26.1536727,27.101 C26.1255922,27.0564607 26.1126562,27.0037585 26.1168545,26.951 C26.1021817,26.8920042 26.0477838,26.8524592 25.9882364,26.8575 L25.9150909,26.8575 L25.9150909,27.119 L25.9332545,27.1185 Z M25.9332545,26.8185 L26.0064,26.8185 C26.0795455,26.8185 26.1536727,26.8 26.1536727,26.725 C26.1536727,26.669 26.1168545,26.6315 26.0250545,26.6315 L25.9519091,26.6315 L25.9519091,26.8185 L25.9332545,26.8185 Z" id="Path_63"></path>
            </g>
        </g>
    </g>
</svg>